# xmcd
#
# Track frame offsets:
#	150
#	16949
#	34044
#	48357
#	62238
#	81228
#	97314
#	117764
#	136297
#	150716
#	170697
#
# Disc length: 2489 seconds
# Revision: 1
# Processed by: cddbd v1.5.2PL0 Copyright (c) Steve Scherf et al.
# Submitted via: dBpowerAMP V12.0
#
DISCID=9009b70b
DTITLE=Various Artist - Texas Loves It's Rising Stars
DYEAR=2005
DGENRE=Country
TTITLE0=Eli Young Band - Small Town Kid
TTITLE1=Mando Saenz - When I Come Around
TTITLE2=Adam Hood - Tuesday Night
TTITLE3=Tony Scalzo - Too Much Information
TTITLE4=Guy Forsyth - So Hard
TTITLE5=Kacy Crowley - Pay Dirt
TTITLE6=Grady - Hammer In My Hand
TTITLE7=Ultrasonic - Kill Myself
TTITLE8=Pushmonkey - Sorry
TTITLE9=Moses Guest - It's Our Love
TTITLE10=Sarah Glynn - Should I Could I
EXTD=
EXTT0=
EXTT1=
EXTT2=
EXTT3=
EXTT4=
EXTT5=
EXTT6=
EXTT7=
EXTT8=
EXTT9=
EXTT10=
PLAYORDER=
